<svg xmlns="http://www.w3.org/2000/svg" viewBox="0 0 64 64" aria-hidden="true">
  <path fill="#e31b23" d="M24 15h16l4 6h8a6 6 0 0 1 6 6v20a6 6 0 0 1-3 5.2L11.8 9 15.5 5.3 59 48.8 55.3 52.5 6 3.2 9.7-.5 24.1 13.9 24 15Z" opacity=".22"/>
  <path fill="#e31b23" d="M12 21h8l4-6h16l4 6h8a6 6 0 0 1 6 6v20a6 6 0 0 1-.7 2.8L11.2 3.7 14.9 0 64 49.1 60.3 52.8l-7.4-7.4A6 6 0 0 1 47 53H12a6 6 0 0 1-6-6V27a6 6 0 0 1 6-6Z"/>
  <path fill="#fff" d="M21.9 29.7a11 11 0 0 0 14.4 14.4l-4.5-4.5a5 5 0 0 1-5.4-5.4l-4.5-4.5Zm22.4 6.9a11 11 0 0 0-13-13l5.1 5.1c1.5.8 2.7 2 3.5 3.5l4.4 4.4Z"/>
</svg>
