<svg xmlns="http://www.w3.org/2000/svg" viewBox="0 0 64 64" aria-hidden="true">
  <path fill="#111" d="M31.5 8a24 24 0 0 1 20.7 12.1l3.7-3.7v14.8H41.1l5.1-5.1A17 17 0 0 0 16.6 23l-4.9-4.9A24 24 0 0 1 31.5 8Zm-20 25.2h14.8l-5.1 5.1A17 17 0 0 0 50.8 41l4.9 4.9A24 24 0 0 1 11.5 44l-3.7 3.7V33.2h3.7Z"/>
  <path fill="#111" d="M21.5 24.2h7l2.5-4.2h5.9l2.6 4.2h7a4 4 0 0 1 4 4v15a4 4 0 0 1-4 4h-25a4 4 0 0 1-4-4v-15a4 4 0 0 1 4-4Zm12.5 6.1a6.4 6.4 0 1 0 0 12.8 6.4 6.4 0 0 0 0-12.8Z"/>
  <circle cx="34" cy="36.7" r="3.5" fill="#fff"/>
</svg>
